<?xml version="1.0"?>
<svg xmlns="http://www.w3.org/2000/svg" xmlns:xlink="http://www.w3.org/1999/xlink" xmlns:svgjs="http://svgjs.com/svgjs" version="1.1" width="512" height="512" x="0" y="0" viewBox="0 0 24 24" style="enable-background:new 0 0 512 512" xml:space="preserve"><g><path xmlns="http://www.w3.org/2000/svg" d="M21,6H18A6,6,0,0,0,6,6H3A3,3,0,0,0,0,9V19a5.006,5.006,0,0,0,5,5H16.686A6,6,0,1,1,24,14.537V9A3,3,0,0,0,21,6ZM8,6a4,4,0,0,1,8,0Z" fill="#2b9a84" data-original="#000000"/><path xmlns="http://www.w3.org/2000/svg" d="M23,18H21V16a1,1,0,0,0-2,0v2H17a1,1,0,0,0,0,2h2v2a1,1,0,0,0,2,0V20h2a1,1,0,0,0,0-2Z" fill="#2b9a84" data-original="#000000"/></g></svg>
